<svg width="146" height="31" viewBox="0 0 146 31" fill="none" xmlns="http://www.w3.org/2000/svg">
<path d="M6.33733 24.7423C4.567 24.7423 3.20267 24.1791 2.24069 23.0488C1.27872 21.9223 0.795898 20.3385 0.795898 18.3048V1.1172C0.795898 0.784348 0.960495 0.619751 1.29335 0.619751H4.14636C4.47921 0.619751 4.64381 0.784348 4.64381 1.1172V18.1694C4.64381 19.2521 4.81938 20.0349 5.17418 20.5067C5.52897 20.9822 6.08129 21.22 6.83478 21.22C7.10179 21.22 7.51877 21.198 8.09669 21.1541C8.42954 21.1541 8.59413 21.3187 8.59413 21.6516V24.1059C8.59413 24.4388 8.47343 24.6143 8.22836 24.6363C7.6541 24.7021 7.02132 24.735 6.33733 24.735V24.7423Z" fill="#202020"/>
<path d="M24.5991 16.9148C24.5991 17.2257 24.4345 17.3793 24.1016 17.3793H14.0136V18.3084C14.0136 19.3033 14.3282 20.0604 14.961 20.5798C15.5901 21.0992 16.4497 21.3589 17.5324 21.3589C18.4834 21.3589 19.3246 21.2272 20.0525 20.9602C20.7841 20.6932 21.501 20.3201 22.2106 19.8336C22.3203 19.7678 22.4191 19.7349 22.5105 19.7349C22.6641 19.7349 22.7885 19.8007 22.8763 19.9324L24.2369 21.7576C24.3247 21.8454 24.3686 21.9441 24.3686 22.0575C24.3686 22.2331 24.2918 22.3684 24.1345 22.4562C22.2106 23.9815 19.9647 24.7459 17.4007 24.7459C16.0949 24.7459 14.8952 24.5082 13.8015 24.0327C12.7078 23.5572 11.8227 22.833 11.146 21.86C10.4693 20.8871 10.1328 19.691 10.1328 18.2755V13.5643C10.1328 12.0171 10.4766 10.7333 11.1606 9.71642C11.8446 8.69958 12.7408 7.9534 13.849 7.4779C14.9537 7.0024 16.1497 6.76465 17.4336 6.76465C18.7175 6.76465 19.8989 7.0024 20.9852 7.4779C22.0679 7.9534 22.9421 8.69958 23.6078 9.71642C24.2699 10.7333 24.6027 12.0171 24.6027 13.5643V16.9148H24.5991ZM20.8499 13.5314C20.8499 12.3829 20.528 11.5306 19.8879 10.9783C19.2478 10.426 18.4285 10.148 17.4336 10.148C16.4387 10.148 15.5645 10.4187 14.9464 10.96C14.3282 11.5014 14.0173 12.3609 14.0173 13.5314V14.3946H20.8536V13.5314H20.8499Z" fill="#202020"/>
<path d="M37.9855 1.1205C37.9855 0.787644 38.1501 0.623047 38.483 0.623047H41.336C41.6688 0.623047 41.8334 0.787644 41.8334 1.1205V22.9863C41.8334 23.2752 41.7127 23.4618 41.4677 23.5496C40.4728 23.9263 39.3718 24.2189 38.1647 24.4274C36.9577 24.6359 35.8238 24.742 34.7631 24.742C32.4624 24.742 30.6226 24.1348 29.2399 22.9168C27.8573 21.6988 27.166 19.8772 27.166 17.4412V13.7908C27.166 12.3753 27.4769 11.1353 28.0951 10.0746C28.7132 9.01383 29.5728 8.1945 30.6664 7.62024C31.7601 7.04598 33.0074 6.75702 34.401 6.75702C35.6629 6.75702 36.8553 7.00209 37.9855 7.48856V1.11683V1.1205ZM31.0542 17.4778C31.0542 18.8494 31.3797 19.8406 32.0344 20.4478C32.6855 21.055 33.6328 21.3586 34.8728 21.3586C36.1128 21.3586 37.1735 21.205 37.9928 20.8941V11.0402C37.1296 10.4659 36.0689 10.177 34.807 10.177C32.3088 10.177 31.0578 11.384 31.0578 13.7945V17.4778H31.0542Z" fill="#202020"/>
<path d="M59.7658 23.2501C59.7658 25.7702 59.1733 27.6905 57.9918 29.0073C56.8067 30.3241 54.945 30.9825 52.4028 30.9825C51.0751 30.9825 49.8937 30.8105 48.8512 30.4667C47.8124 30.1229 46.8395 29.6108 45.9324 28.9232C45.8007 28.8354 45.7348 28.7257 45.7348 28.5903C45.7348 28.5025 45.7678 28.3928 45.8336 28.2575L47.2272 26.2018C47.315 26.0482 47.4357 25.9714 47.593 25.9714C47.7027 25.9714 47.8014 26.0043 47.8929 26.0702C49.2645 27.065 50.7569 27.5625 52.3736 27.5625C53.6574 27.5625 54.5865 27.2296 55.1608 26.5676C55.735 25.9056 56.002 24.7534 55.9581 23.1184C55.4278 23.3415 54.8316 23.5171 54.1659 23.6487C53.5038 23.7804 52.871 23.8463 52.2748 23.8463C50.1972 23.8463 48.4818 23.261 47.1321 22.0869C45.7824 20.9164 45.1094 19.2119 45.1094 16.9771V13.8571C45.1094 11.4027 45.8117 9.60681 47.2162 8.4656C48.6208 7.32805 50.4716 6.75745 52.7723 6.75745C53.9683 6.75745 55.1388 6.8745 56.2873 7.10493C57.4359 7.33537 58.4783 7.65359 59.4074 8.05228C59.6488 8.14006 59.7731 8.33026 59.7731 8.61556V23.2464L59.7658 23.2501ZM48.9829 16.9807C48.9829 18.2207 49.3157 19.1095 49.9778 19.6509C50.6398 20.1922 51.525 20.4629 52.6333 20.4629C53.2953 20.4629 53.9318 20.3897 54.5426 20.2471C55.1498 20.1044 55.6107 19.8996 55.9179 19.6326V10.5761C55.5851 10.4664 55.1205 10.3786 54.5243 10.3091C53.9281 10.2432 53.3648 10.2103 52.8308 10.2103C51.5908 10.2103 50.6398 10.481 49.9778 11.0223C49.3157 11.5637 48.9829 12.511 48.9829 13.8607V16.9807Z" fill="#202020"/>
<path d="M77.5688 16.9148C77.5688 17.2257 77.4042 17.3793 77.0713 17.3793H66.9834V18.3084C66.9834 19.3033 67.2979 20.0604 67.9307 20.5798C68.5598 21.0992 69.4194 21.3589 70.5021 21.3589C71.4531 21.3589 72.2944 21.2272 73.0223 20.9602C73.7538 20.6932 74.4707 20.3201 75.1803 19.8336C75.29 19.7678 75.3888 19.7349 75.4802 19.7349C75.6339 19.7349 75.7582 19.8007 75.846 19.9324L77.2067 21.7576C77.2945 21.8454 77.3383 21.9441 77.3383 22.0575C77.3383 22.2331 77.2615 22.3684 77.1043 22.4562C75.1803 23.9815 72.9345 24.7459 70.3704 24.7459C69.0646 24.7459 67.8649 24.5082 66.7712 24.0327C65.6776 23.5572 64.7924 22.833 64.1157 21.86C63.439 20.8871 63.1025 19.691 63.1025 18.2755V13.5643C63.1025 12.0171 63.4464 10.7333 64.1304 9.71642C64.8144 8.69958 65.7105 7.9534 66.8188 7.4779C67.9234 7.0024 69.1195 6.76465 70.4033 6.76465C71.6872 6.76465 72.8686 7.0024 73.955 7.4779C75.0376 7.9534 75.9118 8.69958 76.5775 9.71642C77.2396 10.7333 77.5724 12.0171 77.5724 13.5643V16.9148H77.5688ZM73.8196 13.5314C73.8196 12.3829 73.4978 11.5306 72.8577 10.9783C72.2176 10.426 71.3982 10.148 70.4033 10.148C69.4084 10.148 68.5342 10.4187 67.9161 10.96C67.2979 11.5014 66.987 12.3609 66.987 13.5314V14.3946H73.8233V13.5314H73.8196Z" fill="#202020"/>
<path d="M81.2006 24.3475C80.8677 24.3475 80.7031 24.1829 80.7031 23.85V8.58642C80.7031 8.29746 80.8238 8.11092 81.0689 8.02314C81.9102 7.6025 82.8319 7.28794 83.8378 7.07579C84.8436 6.8673 85.8568 6.76123 86.8737 6.76123C88.0003 6.76123 89.1305 6.84901 90.2571 7.02824C90.546 7.05019 90.6887 7.21479 90.6887 7.52569V9.91417C90.6887 10.0678 90.6375 10.1812 90.5387 10.247C90.4399 10.3129 90.3119 10.3348 90.1583 10.3129C89.606 10.2251 88.7099 10.1812 87.4699 10.1812C86.2299 10.1812 85.2789 10.3348 84.551 10.6457V23.85C84.551 24.1829 84.3864 24.3475 84.0536 24.3475H81.2006Z" fill="#202020"/>
<path d="M100.729 24.7422C98.9586 24.7422 97.5943 24.1789 96.6323 23.0487C95.6703 21.9221 95.1875 20.3383 95.1875 18.3047V1.11708C95.1875 0.784226 95.3521 0.619629 95.685 0.619629H98.538C98.8708 0.619629 99.0354 0.784226 99.0354 1.11708V18.1693C99.0354 19.252 99.211 20.0348 99.5658 20.5066C99.9206 20.9821 100.473 21.2199 101.226 21.2199C101.493 21.2199 101.91 21.1979 102.488 21.154C102.821 21.154 102.986 21.3186 102.986 21.6515V24.1058C102.986 24.4386 102.865 24.6142 102.62 24.6362C102.046 24.702 101.413 24.7349 100.729 24.7349V24.7422Z" fill="#202020"/>
<path d="M108.559 4.20793C108.149 4.62857 107.634 4.83705 107.015 4.83705C106.397 4.83705 105.874 4.62857 105.457 4.20793C105.037 3.7873 104.828 3.2679 104.828 2.64975C104.828 2.03159 105.037 1.51586 105.457 1.10619C105.878 0.696528 106.397 0.491699 107.015 0.491699C107.634 0.491699 108.175 0.689212 108.574 1.0879C108.972 1.48659 109.17 2.00599 109.17 2.64609C109.17 3.28619 108.965 3.78729 108.555 4.20427L108.559 4.20793ZM105.556 24.3473C105.223 24.3473 105.059 24.1827 105.059 23.8498V7.62423C105.059 7.31333 105.223 7.1597 105.556 7.1597H108.442C108.753 7.1597 108.906 7.31333 108.906 7.62423V23.8498C108.906 24.1827 108.753 24.3473 108.442 24.3473H105.556Z" fill="#202020"/>
<path d="M113.271 24.3473C112.938 24.3473 112.773 24.1827 112.773 23.8498V8.65568C112.773 8.36672 112.894 8.16921 113.139 8.05948C115.129 7.19626 117.331 6.76465 119.741 6.76465C122.152 6.76465 124.039 7.36817 125.4 8.57156C126.761 9.7786 127.441 11.6514 127.441 14.1971V23.8535C127.441 24.1863 127.287 24.3509 126.976 24.3509H124.09C123.758 24.3509 123.593 24.1863 123.593 23.8535V14.2666C123.593 12.7852 123.271 11.7391 122.631 11.132C121.991 10.5248 121.025 10.2212 119.745 10.2212C118.593 10.2212 117.554 10.3419 116.625 10.587V23.8571C116.625 24.19 116.46 24.3546 116.128 24.3546H113.275L113.271 24.3473Z" fill="#202020"/>
<path d="M142.052 24.3469C141.741 24.3469 141.533 24.2482 141.423 24.047L136.214 17.2108L135.055 18.4068V23.8495C135.055 24.1824 134.89 24.3469 134.557 24.3469H131.704C131.372 24.3469 131.207 24.1824 131.207 23.8495V1.1205C131.207 0.787644 131.372 0.623047 131.704 0.623047H134.557C134.89 0.623047 135.055 0.787644 135.055 1.1205V13.7286L140.893 7.38981C141.024 7.23619 141.226 7.15937 141.489 7.15937H144.905C145.172 7.15937 145.304 7.24715 145.304 7.42638C145.304 7.53611 145.26 7.63853 145.172 7.72632L138.768 14.5297L145.867 23.7544C145.955 23.93 145.999 24.0434 145.999 24.0872C145.999 24.2628 145.856 24.3543 145.567 24.3543H142.048L142.052 24.3469Z" fill="#202020"/>
</svg>
